<?xml version="1.0" encoding="utf-8"?>
<!-- Generator: Adobe Illustrator 23.0.3, SVG Export Plug-In . SVG Version: 6.00 Build 0)  -->
<svg version="1.0" id="Layer_1" xmlns="http://www.w3.org/2000/svg" xmlns:xlink="http://www.w3.org/1999/xlink" x="0px" y="0px"
	 viewBox="0 0 283.5 283.5" style="enable-background:new 0 0 283.5 283.5;" xml:space="preserve">
<g>
	<path style="fill:#FFFFFF;" d="M235.3,163H120.5V48.2c0-3.1,2.5-5.7,5.7-5.7h31.2c3.1,0,5.7,2.5,5.7,5.7v72.3h72.3
		c3.1,0,5.7,2.5,5.7,5.7v31.2C240.9,160.5,238.4,163,235.3,163z"/>
</g>
<g>
	<path style="fill:#FFFFFF;" d="M157.3,240.9h-31.2c-3.1,0-5.7-2.5-5.7-5.7V163H48.2c-3.1,0-5.7-2.5-5.7-5.7v-31.2
		c0-3.1,2.5-5.7,5.7-5.7H163v114.8C163,238.4,160.5,240.9,157.3,240.9z"/>
</g>
</svg>
