<?xml version="1.0" encoding="utf-8"?>
<!-- Generator: Adobe Illustrator 23.0.3, SVG Export Plug-In . SVG Version: 6.00 Build 0)  -->
<svg version="1.0" id="Layer_1" xmlns="http://www.w3.org/2000/svg" xmlns:xlink="http://www.w3.org/1999/xlink" x="0px" y="0px"
	 viewBox="0 0 283.5 283.5" style="enable-background:new 0 0 283.5 283.5;" xml:space="preserve">
<path style="fill:#FFFFFF;" d="M104.7,92.1h144.8c3.1,0,5.7-2.5,5.7-5.7V55.3c0-3.1-2.5-5.7-5.7-5.7H104.7c-3.1,0-5.7,2.5-5.7,5.7
	v31.2C99,89.6,101.5,92.1,104.7,92.1z"/>
<path style="fill:#FFFFFF;" d="M104.7,163h144.8c3.1,0,5.7-2.5,5.7-5.7v-31.2c0-3.1-2.5-5.7-5.7-5.7H104.7c-3.1,0-5.7,2.5-5.7,5.7
	v31.2C99,160.4,101.5,163,104.7,163z"/>
<path style="fill:#FFFFFF;" d="M104.7,233.9h144.8c3.1,0,5.7-2.5,5.7-5.7V197c0-3.1-2.5-5.7-5.7-5.7H104.7c-3.1,0-5.7,2.5-5.7,5.7
	v31.2C99,231.3,101.5,233.9,104.7,233.9z"/>
<path style="fill:#FFFFFF;" d="M65.2,92.1H34c-3.1,0-5.7-2.5-5.7-5.7V55.3c0-3.1,2.5-5.7,5.7-5.7h31.2c3.1,0,5.7,2.5,5.7,5.7v31.2
	C70.9,89.6,68.3,92.1,65.2,92.1z"/>
<path style="fill:#FFFFFF;" d="M65.2,163H34c-3.1,0-5.7-2.5-5.7-5.7v-31.2c0-3.1,2.5-5.7,5.7-5.7h31.2c3.1,0,5.7,2.5,5.7,5.7v31.2
	C70.9,160.4,68.3,163,65.2,163z"/>
<path style="fill:#FFFFFF;" d="M65.2,233.9H34c-3.1,0-5.7-2.5-5.7-5.7V197c0-3.1,2.5-5.7,5.7-5.7h31.2c3.1,0,5.7,2.5,5.7,5.7v31.2
	C70.9,231.3,68.3,233.9,65.2,233.9z"/>
</svg>
