<?xml version="1.0" encoding="utf-8"?>
<!-- Generator: Adobe Illustrator 23.0.3, SVG Export Plug-In . SVG Version: 6.00 Build 0)  -->
<svg version="1.0" id="Layer_1" xmlns="http://www.w3.org/2000/svg" xmlns:xlink="http://www.w3.org/1999/xlink" x="0px" y="0px"
	 viewBox="0 0 283.5 283.5" style="enable-background:new 0 0 283.5 283.5;" xml:space="preserve">
<g>
	<path style="fill:#FFFFFF;" d="M243.8,87.8H122.9c-1.8,0-2.6,2.6-1.1,3.8l59.3,47.9c1.3,1.1,3.1,1.1,4.5,0l59.4-47.9
		C246.3,90.3,245.6,87.8,243.8,87.8z"/>
	<path style="fill:#FFFFFF;" d="M181,159.9l-73.6-59.4c-1.3-1-3.1,0-3.1,1.8v89.1c0,2.4,1.7,4.3,3.8,4.3h150.3
		c2.1,0,3.8-1.9,3.8-4.3v-89.3c0-1.7-1.7-2.7-3-1.7l-73.7,59.5C184.2,161,182.3,161,181,159.9z"/>
</g>
<path style="fill:#FFFFFF;" d="M104.3,150.1H25.4c-2.3,0-4.2-1.9-4.2-4.2v-8.3c0-2.3,1.9-4.2,4.2-4.2h78.9V150.1z"/>
<path style="fill:#FFFFFF;" d="M114,183.7H42c-2.3,0-4.2-1.9-4.2-4.2v-8.3c0-2.3,1.9-4.2,4.2-4.2h72V183.7z"/>
<path style="fill:#FFFFFF;" d="M106.6,116.6H67.2c-2.4,0-4.4-2-4.4-4.4v-7.8c0-2.4,2-4.4,4.4-4.4h39.4V116.6z"/>
</svg>
