<?xml version="1.0" encoding="utf-8"?>
<!-- Generator: Adobe Illustrator 23.0.3, SVG Export Plug-In . SVG Version: 6.00 Build 0)  -->
<svg version="1.0" id="Layer_1" xmlns="http://www.w3.org/2000/svg" xmlns:xlink="http://www.w3.org/1999/xlink" x="0px" y="0px"
	 viewBox="0 0 283.5 283.5" style="enable-background:new 0 0 283.5 283.5;" xml:space="preserve">
<g>
	<path style="fill:#FFFFFF;" d="M234.1,68H49.6c-2.8,0-4,3.6-1.7,5.2l90.4,65.3c2,1.5,4.8,1.5,6.8,0l90.6-65.4
		C238,71.6,236.8,68,234.1,68z"/>
	<path style="fill:#FFFFFF;" d="M138.3,166.6L26,85.4c-2-1.4-4.7,0-4.7,2.4v121.7c0,3.2,2.6,5.8,5.8,5.8h229.3
		c3.2,0,5.8-2.6,5.8-5.8v-122c0-2.3-2.6-3.7-4.5-2.3l-112.5,81.3C143.1,168.1,140.4,168.1,138.3,166.6z"/>
</g>
</svg>
