<?xml version="1.0" encoding="utf-8"?>
<!-- Generator: Adobe Illustrator 23.0.3, SVG Export Plug-In . SVG Version: 6.00 Build 0)  -->
<svg version="1.0" id="Layer_1" xmlns="http://www.w3.org/2000/svg" xmlns:xlink="http://www.w3.org/1999/xlink" x="0px" y="0px"
	 viewBox="0 0 283.5 283.5" style="enable-background:new 0 0 283.5 283.5;" xml:space="preserve">
<g>
	<g>
		<path style="fill:#FFFFFF;" d="M109.1,27.3v10.2c0,3.2-2.6,5.9-5.9,5.9h-54c-3.2,0-5.9,2.6-5.9,5.9v54c0,3.2-2.6,5.9-5.9,5.9H27.3
			c-3.2,0-5.9-2.6-5.9-5.9V27.3c0-3.2,2.6-5.9,5.9-5.9h75.9C106.5,21.4,109.1,24.1,109.1,27.3z"/>
	</g>
	<g>
		<path style="fill:#FFFFFF;" d="M262.4,27.3v75.9c0,3.2-2.6,5.9-5.9,5.9h-10.1c-3.2,0-5.9-2.6-5.9-5.9V49.3c0-3.2-2.6-5.9-5.9-5.9
			h-54.1c-3.2,0-5.9-2.6-5.9-5.9V27.3c0-3.2,2.6-5.9,5.9-5.9h75.9C259.8,21.4,262.4,24.1,262.4,27.3z"/>
	</g>
	<g>
		<path style="fill:#FFFFFF;" d="M27.3,174.7h10.1c3.2,0,5.9,2.6,5.9,5.9v54c0,3.2,2.6,5.9,5.9,5.9h53.9c3.2,0,5.9,2.6,5.9,5.9v10.2
			c0,3.2-2.6,5.9-5.9,5.9H27.3c-3.2,0-5.9-2.6-5.9-5.9v-75.9C21.4,177.3,24.1,174.7,27.3,174.7z"/>
	</g>
	<g>
		<path style="fill:#FFFFFF;" d="M71.3,152.8h53.9c3.2,0,5.9,2.6,5.9,5.9v53.9c0,3.2-2.6,5.9-5.9,5.9H71.3c-3.2,0-5.9-2.6-5.9-5.9
			v-53.9C65.4,155.4,68,152.8,71.3,152.8z M87.3,180.6v10c0,3.2,2.6,5.9,5.9,5.9h10c3.2,0,5.9-2.6,5.9-5.9v-10
			c0-3.2-2.6-5.9-5.9-5.9h-10C89.9,174.7,87.3,177.4,87.3,180.6z"/>
	</g>
	<g>
		<path style="fill:#FFFFFF;" d="M125.1,130.8H71.2c-3.2,0-5.9-2.6-5.9-5.9V71.3c0-3.2,2.6-5.9,5.9-5.9h53.9c3.2,0,5.9,2.6,5.9,5.9
			v53.6C131,128.1,128.4,130.8,125.1,130.8z M87.3,93.1v10c0,3.2,2.6,5.9,5.9,5.9h10c3.2,0,5.9-2.6,5.9-5.9v-10
			c0-3.2-2.6-5.9-5.9-5.9h-10C89.9,87.3,87.3,89.9,87.3,93.1z"/>
	</g>
	<g>
		<path style="fill:#FFFFFF;" d="M158.7,65.4h53.9c3.2,0,5.9,2.6,5.9,5.9v53.6c0,3.2-2.6,5.9-5.9,5.9h-53.9c-3.2,0-5.9-2.6-5.9-5.9
			V71.2C152.8,68,155.5,65.4,158.7,65.4z M190.7,87.3h-10c-3.2,0-5.9,2.6-5.9,5.9v10c0,3.2,2.6,5.9,5.9,5.9h10
			c3.2,0,5.9-2.6,5.9-5.9v-10C196.6,89.9,193.9,87.3,190.7,87.3z"/>
	</g>
	<g>
		<path style="fill:#FFFFFF;" d="M256.4,262.3h-75.8c-3.2,0-5.9-2.6-5.9-5.9v-10.1c0-3.2,2.6-5.9,5.9-5.9h53.9
			c3.2,0,5.9-2.6,5.9-5.9v-54c0-3.2,2.6-5.9,5.9-5.9h10.1c3.2,0,5.9,2.6,5.9,5.9v75.8C262.3,259.7,259.7,262.3,256.4,262.3z"/>
	</g>
	<g>
		<path style="fill:#FFFFFF;" d="M196.6,196.6h-37.9c-3.2,0-5.9-2.6-5.9-5.9v-32c0-3.2,2.6-5.9,5.9-5.9h10c3.2,0,5.9,2.6,5.9,5.9
			v10.1c0,3.2,2.6,5.9,5.9,5.9h16.1l0,0C196.6,182,196.6,189.3,196.6,196.6L196.6,196.6z"/>
	</g>
	<g>
		<path style="fill:#FFFFFF;" d="M196.6,174.7v-16c0-3.2,2.6-5.9,5.9-5.9h10.1c3.2,0,5.9,2.6,5.9,5.9v10.1c0,3.2-2.6,5.9-5.9,5.9
			C207.2,174.7,201.9,174.7,196.6,174.7C196.6,174.7,196.6,174.7,196.6,174.7z"/>
	</g>
	<g>
		<path style="fill:#FFFFFF;" d="M196.6,196.6h16c3.2,0,5.9,2.6,5.9,5.9v10.1c0,3.2-2.6,5.9-5.9,5.9h-10.1c-3.2,0-5.9-2.6-5.9-5.9
			C196.6,207.2,196.6,201.9,196.6,196.6C196.6,196.6,196.6,196.6,196.6,196.6z"/>
	</g>
</g>
</svg>
