<?xml version="1.0" encoding="utf-8"?>
<!-- Generator: Adobe Illustrator 23.0.3, SVG Export Plug-In . SVG Version: 6.00 Build 0)  -->
<svg version="1.0" id="Layer_1" xmlns="http://www.w3.org/2000/svg" xmlns:xlink="http://www.w3.org/1999/xlink" x="0px" y="0px"
	 viewBox="0 0 283.5 283.5" style="enable-background:new 0 0 283.5 283.5;" xml:space="preserve">
<path style="fill:#FFFFFF;" d="M236.9,127.7l20-27.4c-10.3-17.9-11.4-19.8-21.8-37.7l-33.7,3.7c-9-5.2-15.3-8.9-24.3-14l-13.7-31
	c-20.7,0-22.8,0-43.5,0l-13.7,31c-9,5.2-15.3,8.9-24.3,14l-33.7-3.7c-10.3,17.9-11.4,19.8-21.8,37.7l20,27.4c0,10.4,0,17.7,0,28.1
	l-20,27.4c10.3,17.9,11.4,19.8,21.8,37.7l33.7-3.7c9,5.2,15.3,8.9,24.3,14l13.7,31c20.7,0,22.8,0,43.5,0l13.7-31
	c9-5.2,15.3-8.9,24.3-14l33.7,3.7c10.3-17.9,11.4-19.8,21.8-37.7l-20-27.4C236.9,145.4,236.9,138.1,236.9,127.7z M141.7,209.8
	c-37.6,0-68-30.5-68-68c0-37.6,30.5-68,68-68s68,30.5,68,68C209.8,179.3,179.3,209.8,141.7,209.8z"/>
<circle style="fill:#FFFFFF;" cx="141.7" cy="141.7" r="40.8"/>
</svg>
