<?xml version="1.0" encoding="utf-8"?>
<!-- Generator: Adobe Illustrator 23.0.3, SVG Export Plug-In . SVG Version: 6.00 Build 0)  -->
<svg version="1.0" id="Layer_1" xmlns:serif="http://www.serif.com/"
	 xmlns="http://www.w3.org/2000/svg" xmlns:xlink="http://www.w3.org/1999/xlink" x="0px" y="0px" viewBox="0 0 456 456"
	 style="enable-background:new 0 0 456 456;" xml:space="preserve">
<g>
	<path style="fill:none;" d="M203.7,147.9c-1.5,5.8-2.7,10.9-4.2,16.7c8.9,1,8.9,6.2,7.4,12.5c-2.6,11.4-4.6,23-7.4,34.4
		c-1.8,7.3-2.2,17.6-7,21c-11.8,8.2-10.3,19.6-12.8,29.4c8.4,0.6,16,1.2,24.8,1.9c0.7-0.9,3.3-5.9,4.8-5.6c11.5,2.2,9.8-7,10.7-12.5
		c3.7-21.2,6.4-42.6,10.1-63.7c2.2-12.9,5.7-25.5,8.6-38.2c1.2,0.2,2.5,0.3,3.7,0.5c0,3.4,0.5,6.8-0.1,10.1
		c-5.7,31.5-11.6,62.9-17.3,94.4c-0.6,3.4-0.1,6.9-0.1,10.4c0.8,0.1,1.7,0.1,2.5,0.2c12.1-37.7,9.2-79.1,26.5-115.7
		c1.2,5.2,1.1,10.1,0.1,14.9c-6.5,32.3-13.2,64.5-19.9,96.7c-1.2,5.8-2.2,11.2,6.6,13.9c1.6-4.5,4-8.4,4.4-12.6
		c0.7-9-0.6-18.3,0.7-27.2c3.4-22.2,8.2-44.2,11.9-66.4c2.7-15.8,4.6-31.7,6.9-47.5c-0.9-0.5-1.8-1-2.7-1.5
		c-3.1,2.5-6.1,5.1-7.6,6.3c-5.2,0-8.9,0-12.4,0c-1.1-3.1-2.6-7.2-4.1-11.3c-1.4,0.2-2.8,0.4-4.2,0.5c-1.2,10.1-2.5,20.3-3.4,30.4
		c-0.6,6.8,0.5,13.8-0.6,20.6c-2.5,15.3-5.5,30.6-8.9,45.7c-2.7,11.8-6.3,23.4-9,33.2c-4.5-2.2-8.1-4-12.7-6.3
		c4.3-27.5,16.4-55,15.4-85.2C210.8,147.9,207.7,147.9,203.7,147.9z M111.9,195.3c0.9,5.1,1.3,8.1,1.9,11c0.7,3.3,2.1,6.5,2.5,9.8
		c3.4,30.6,20.9,53.2,44.4,70c45.8,32.9,103,29.3,146.8-5c6.1-4.8,8.6-14.2,14.8-18.7c8.9-6.4,11.7-15.2,14.5-24.5
		c1.9-6.2,3.5-12.1,3.6-19c0.1-13.1,5.5-26.4,4.5-39.3c-3.1-42.6-30.4-70.2-63.2-92.6c-9.7-6.7-22.9-9.5-35-11.4
		c-35.9-5.7-67.5,6-95.4,27.9c-10.1,8-19,17.9-23.2,30.8c3.1-1.8,5.7-4.1,7.4-6.9c14.1-23,36.5-35.4,60.6-42.8
		c37-11.3,72.2-4.3,101.9,21.3c11.6,10,22.9,21.6,30.1,34.8c9.9,18,13.6,38.5,11.1,59.8c-4.7,40.8-24.9,71.3-61.6,88.6
		c-32.8,15.5-66.9,14.9-100-2c-2.8-1.4-6.4-1.4-8.5-1.8c-2.4-2.7-4.3-5.1-6.4-7.3c-9.9-10.5-20.4-20.5-29.6-31.6
		c-4.7-5.7-9.7-13-10.3-20C122,215.6,121,205.5,111.9,195.3z M281.2,137.7c1.8,4.9,4.5,8.4,4.1,11.5c-1.6,13.3-1.9,27.2-14.9,35.9
		c-1.4,0.9-1.7,3.8-2.2,5.8c-5.2,20.9-8.2,42.1-5.4,63.7c0.4,3.2,3.1,6,4.7,9c2.6-2.8,5.8-5.3,7.7-8.6c1.8-3.1,2.4-6.9,3.5-10.4
		c0.8,0.2,1.7,0.4,2.5,0.7c0.5,3.4,1,6.8,1.5,10.2c1,0.1,1.9,0.2,2.9,0.3c6-11.8,3.5-25.3,5.1-38.3c-1.2,1.7-2.4,3.3-4.8,6.6
		c-0.4-4-0.9-6-0.8-8c1.4-18,3.6-35.9,4.2-53.9c0.4-11.9-1.3-23.8-2.4-35.7c-0.2-1.8-2-4.5-3.5-4.8c-1.6-0.3-4.3,1.3-5.4,2.8
		c-9.9,14.9-9.5,31.7-7.9,48.7C278.8,163.7,271.5,150,281.2,137.7z M151,260.8c1.8,0.5,3.6,1.1,5.4,1.6c2-5.7,4.7-11.3,5.8-17.1
		c5.1-28.3,16.4-54.4,27.3-80.7c4-9.6,6.9-19.7,9.4-29.8c0.7-2.8-0.9-8-3.2-9.3c-4.1-2.5-9.5-3-15-4.5c-3,19.6-12.6,38.3-10.7,59.1
		c6.6-10.8,3.7-25.2,15-34.2c0.9,4,1,7.9-0.3,11.4c-8.5,23.5-17.8,46.7-25.9,70.3C155.1,238.2,153.6,249.7,151,260.8z M273,113.2
		c14.2-8.3,20-6,26.1,10.2c0.4,1.2,1,2.3,1.3,3.6c11.4,51.5,8.7,101.5-15.3,149.5c2.9-3.9,6.2-7.9,8.1-12.5
		c18.2-44.5,21.4-90.2,9.9-136.9c-1.5-5.9-5.3-11.5-9-16.5C289,103.6,278.1,102.5,273,113.2z M188.6,201.2c-1.2-0.4-2.5-0.8-3.7-1.1
		c-1.3,3.4-2.7,6.7-3.8,10.1c-4.5,14.4-9,28.8-13,43.4c-0.6,2,1.5,4.7,2.3,7.1c1.5-1.4,3.8-2.5,4.2-4.1
		C179.5,238.1,184,219.7,188.6,201.2z M214.7,133.2c9.3-11.4,12.8-32.2,7.9-40.9C216.9,105.1,215,117.6,214.7,133.2z M121.6,142.2
		c-3.1,15-6,28.5-9.2,43.9C119.8,178.1,126.3,149,121.6,142.2z"/>
	<path d="M371,234.9c-4.7,5.2-1.5,16.7-14.1,15c2,4,3.3,6.4,4.6,9.1c-6,7.5-11.1,2.4-18.8-0.2c0.8,3.4,1.5,6.9,2.7,12
		c-9.6-5.7-12.6,0.7-17.5,6.9c-6.6,8.3-14.9,15.4-23.5,21.7c-6.6,4.8-14.8,7.5-23.1,11.5c0.3,0.9,0.9,2.4,1.7,4.4
		c-8.9,1.3-9.8,7.5-9,15.2c1.1,11,2,22.1,2.3,33.1c0.1,2.9-1.8,6.4-3.9,8.5c-1.1,1.1-6,0.7-6.8-0.5c-1.5-2.3-1.5-5.7-1.5-8.6
		c-0.1-7.2,1.1-14.6,0.2-21.7c-1.5-12.2-8.3-17.2-20.9-16.1c-2.8,7.5-5.4,15.4-8.9,22.9c-0.9,1.9-4.9,3.8-6.7,3.2
		c-2-0.6-3.8-4-4.3-6.5c-3.7-17.8-13.2-26.1-28.5-21.8c-2.7-2.4-4.3-4.7-6.5-5.7c-24.5-10.4-44.5-26.6-63.8-44.7
		c-5.1-4.7-7.5-16.7-18.9-13.5c-1.6-12.1-22.7-12.8-17.1-29.3c0.2-0.5-2-1.7-3.1-2.6c0-3.8,0-7.6,0-11.4c1.9-1.6,5.8-3.6,5.5-4.6
		c-2.2-9.1,6.4-15.8,5-24.6c-0.3-2-0.3-5.8,0.3-5.9c8.1-2.1,5.8-9.2,7.4-14.4c2.9-9.8,4-20.5,8.6-29.5c10.7-21.1,26.3-39,46.4-51.1
		c6.3-3.8,13.2-8.8,21-11.1c4.7-1.4,8.9-4.4,11.1-5.6c1.7,2.8,2.5,4.3,3.4,5.7c-11.6,4.9-23.2,9.8-35.7,15.1c-0.1,0.9-0.5,2.9-1,5.9
		c-7.9-4.5-7.1,2.1-9.8,6.2c-4.5,7-11.5,12.4-16.5,19.1c-30.7,40.7-28.6,103.4,1.7,142.3c23.7,30.4,53.7,48.4,91.6,50.8
		c42.5,2.7,77.7-13.6,104.7-46.8c15.6-19.1,19-42.7,24.2-65.7c0.7-3,1.7-5.9,2.6-8.8c-1.1,12-2.2,24-3.3,36c0.7,0.1,1.5,0.3,2.2,0.4
		c1.4-6.1,2.7-12.2,4.7-20.9c4.7,6.2,8.1,10.7,11.5,15.2C371,227.3,371,231.1,371,234.9z"/>
	<path d="M253,63.6c14.1,4.5,28.3,8.9,42.4,13.6c2.3,0.7,4.1,2.6,6.3,3.7c6.1,2.9,12.6,5.2,18.4,8.7c3.6,2.2,7.4,5.6,9,9.4
		c9.8,24.3,27.1,45.7,27.7,73.4c0.1,3.9,2.4,7.8,3.6,11.8c1.3,4.4,1.5,8.4-4.6,9c-1.8-9.5-3.2-19.2-5.5-28.6
		c-8.4-34-26.2-60.4-57.6-78.2c-14.5-8.2-29-14.3-45.2-17.4c-1-0.2-1.4-3.5-2.1-5.4C247.9,63.6,250.4,63.6,253,63.6z"/>
	<path d="M193.8,75.1c6.1-5.5,12.2-11.1,21.1-11.6c1.3,0,2.5,0,3.8,0c-0.8,4.7-1.8,7.3-8.3,6.5C205.1,69.4,199.3,73.3,193.8,75.1z"
		/>
	<path style="fill:#E31E24;" d="M203.7,145.2c4.1,0,8.2,0.2,12,0.2c1,30.1-12.2,60.2-16.5,87.7c0.3,0.2,0.7,0.3,1,0.5
		c1.2,0.6,2.3-1.6,4.3-2.5c0.8-0.3,3.8-0.2,4.5,0.3c0.7,0.5-0.6,6.2,0.7,6.8c0.8,0.4,1.5,0.8,2.3,1.2c1.3-17.8,6.3-21.4,9-33.2
		c3.4-15.1,6.4-30.4,8.9-45.7c1.1-6.7-0.3-13.5-0.3-20.4c-0.1-11.6,2-22.4,3.2-32.6c1.4-0.2,6.3,0.2,7.7,0c1.5,4.1,0.5,9.6,1.7,12.7
		c1.1,0,3.3-0.1,3.3-1.3c0-2.9,1.1-3.9,2.3-4c1.3-0.1,3.6,2.3,4.4,5.2c0.2,0.7,1.6,0,2.4,0c1.5-1.2,0.6-4.4,3.6-7
		c1.9-2.6,5.8-1.8,6.7-1.3c0.6,17.3-4.2,35.2-6.9,51c-3.8,22.2-7.3,44-10.7,66.2c-1.4,8.9,0.4,16.9-0.4,26c-0.3,4.1-4.4,9.5-6,13.9
		c-8.8-2.6-8.9-8.1-7.7-13.9c6.7-32.2,14.5-64.4,21.1-96.6c1-4.8,1-9.7-0.1-14.9c-17.3,36.6-14.4,77.9-26.5,115.7
		c-0.8-0.1-1.7-0.1-2.5-0.2c0-3.5-0.5-7,0.1-10.4c5.7-31.5,11.6-62.9,17.3-94.4c0.6-3.3,0.1-6.7,0.1-10.1c-1.2-0.2-2.5-0.3-3.7-0.5
		c-2.9,12.7-6.4,25.4-8.6,38.2c-3.7,21.2-6.3,42.6-10.1,63.7c-1,5.5,0.7,14.7-10.7,12.5c-1.5-0.3-5.7,7.7-6.4,8.7
		c-7.4-5.5-15.3-6.1-24.5-2.1c2.5-9.7,1-27.6,13.3-32.9c5.6-2.4,2.9-8.5,4.7-15.8c2.7-11.4,6.7-27.1,9.3-38.5
		c1.5-6.3,1.5-13.5-7.5-14.5C199.6,157.1,202.2,151,203.7,145.2z"/>
	<path d="M111.9,195.3c9.1,10.2,10.1,20.3,11.2,31.2c0.6,7,5.6,14.3,10.3,20c9.2,11.1,19.7,21.1,29.6,31.6c2.1,2.2,4,4.6,6.4,7.3
		c2,0.4,5.7,0.3,8.5,1.8c33.1,16.8,67.1,17.5,100,2c36.7-17.3,56.9-47.8,61.6-88.6c2.5-21.3-1.2-41.7-11.1-59.8
		c-7.3-13.2-18.6-24.8-30.1-34.8c-29.7-25.6-64.9-32.5-101.9-21.3c-24.1,7.3-46.5,19.8-60.6,42.8c-1.7,2.8-4.4,5.1-7.4,6.9
		c4.2-12.9,13-22.9,23.2-30.8c27.9-21.9,59.5-33.6,95.4-27.9c12,1.9,25.2,4.8,35,11.4c32.8,22.4,60.1,50.1,63.2,92.6
		c0.9,12.9-4.4,26.2-4.5,39.3c-0.1,6.9-1.7,12.8-3.6,19c-2.9,9.3-5.6,18.1-14.5,24.5c-6.2,4.5-8.7,13.9-14.8,18.7
		c-43.9,34.3-101,37.9-146.8,5c-23.5-16.9-40.9-39.5-44.4-70c-0.4-3.3-1.8-6.5-2.5-9.8C113.2,203.3,112.8,200.4,111.9,195.3z"/>
	<path style="fill:#E31E24;" d="M281.2,137.7c-11.4,11.1-0.1,34.2-12.7,34.2c-1.5-17-1.9-33.4,8-48.3c1-1.6,5.5-4.9,7.1-4.6
		c1.5,0.3,5,5.3,5.2,7.1c1.1,11.9,0.9,24.2,0.5,36.1c-0.6,18-2.8,35.9-4.2,53.9c-0.2,2,0.7,1.9,1.1,5.8c2.4-3.3,3.2-6.6,4.5-8.2
		c2.1,12.7,2,31.5-5.1,42.2c-1-0.1-1.9-0.2-2.9-0.3c-2.1-3-1-6.8-1.5-10.2c-0.8-0.2-1.7-0.4-2.5-0.7c-1.1,3.5-1.7,7.3-3.5,10.4
		c-1.9,3.2-3.4,7.2-7.7,8.6c-5.8-3.9-4.3-5.8-4.7-9c-2.8-21.6,0.2-42.8,5.4-63.7c0.5-2-0.8-6.9,0.7-7.6
		c13.6-6.1,13.8-20.8,15.3-34.1C284.5,146.2,283,142.5,281.2,137.7z M273,238.9c3.7-16.3,7-27.5,10.2-41.9
		C266.3,209.9,262,224.8,273,238.9z"/>
	<path style="fill:#E31E24;" d="M151,260.8c0.9-11.5,1.8-22.2,5.5-32.9c8.1-23.6,19.8-47.1,26.9-70.9c1-3.5,2.3-7.1,1.5-11.1
		c-11.3,9-6.9,25-15,34.2c-6.8-14.6,5.9-44.2,10.7-63.1c5,3.3,11.1,5.7,17.5,6.5c2.6,0.3,1.3,8.4,0.6,11.2
		c-2.5,10.1-5.4,20.2-9.4,29.8c-10.9,26.3-22.2,52.4-27.3,80.7c-1.1,5.9-3.8,11.4-5.8,17.1C154.7,261.9,152.8,261.3,151,260.8z"/>
	<path style="fill:#E31E24;" d="M269.9,115.2c12.2-20.6,21-12.7,26.1-5.7c3.7,5,7.4,11.5,8.8,17.4c11.5,46.6,6.7,94.9-11.5,139.4
		c-1.9,4.6-8.4,6.2-11.3,10.1c24.9-47,25.4-97.4,18.3-149.5c-0.2-1.2-0.9-2.4-1.3-3.6C293.8,107.6,284.1,108.2,269.9,115.2z"/>
	<path style="fill:#E31E24;" d="M189.6,197c-3.5,19.2-10.1,41.2-14.9,59.6c-0.4,1.6-2.8,2.7-4.2,4.1c-0.8-2.4-4.5-4.4-3.9-6.4
		c4-14.5,8.6-30,13.1-44.4c1.1-3.4,2.5-9.6,3.7-12.9C184.6,197.4,188.3,196.6,189.6,197z"/>
	<path style="fill:#E31E24;" d="M214.7,133.2c-1.9-15.4,0-31.7,8.4-43.9C229.8,97.2,226,123.4,214.7,133.2z"/>
	<path d="M121.6,142.2c4.7,6.8-1.7,36-9.2,43.9C115.6,170.6,118.4,157.2,121.6,142.2z"/>
	<path style="fill:none;" d="M273,242c-10.9-14.1-6.8-32.1,10.1-45C280,211.4,276.7,225.7,273,242z"/>
</g>
<radialGradient id="SVGID_1_" cx="236.7826" cy="365.8224" r="105.5443" gradientUnits="userSpaceOnUse">
	<stop  offset="6.703911e-02" style="stop-color:#FFFFFF"/>
	<stop  offset="0.7" style="stop-color:#FFFFFF;stop-opacity:0"/>
</radialGradient>
<ellipse style="fill:url(#SVGID_1_);" cx="236.8" cy="365.8" rx="137" ry="59.3"/>
<g style="opacity:0.8;">
	<g>
		<path d="M133.2,368h-12.8v7c0,1.5,0.1,2.4,0.3,2.8c0.2,0.4,0.6,0.6,1.2,0.6c0.7,0,1.3-0.3,1.5-0.8c0.3-0.6,0.4-1.7,0.4-3.3v-4.3
			h9.4v2.4c0,2-0.1,3.5-0.4,4.6c-0.3,1.1-0.8,2.2-1.8,3.4c-0.9,1.2-2.1,2.1-3.5,2.8c-1.4,0.6-3.2,0.9-5.4,0.9
			c-2.1,0-3.9-0.3-5.5-0.9c-1.6-0.6-2.8-1.4-3.7-2.5c-0.9-1.1-1.5-2.2-1.8-3.5c-0.3-1.3-0.5-3.1-0.5-5.5v-9.5c0-2.8,0.4-5.1,1.1-6.7
			c0.8-1.6,2-2.9,3.8-3.8c1.7-0.9,3.7-1.3,6-1.3c2.8,0,5.1,0.5,6.9,1.6c1.8,1.1,3.1,2.4,3.8,4.2c0.7,1.7,1.1,4.2,1.1,7.3V368z
			 M123.3,362.7v-2.4c0-1.7-0.1-2.8-0.3-3.3c-0.2-0.5-0.5-0.7-1.1-0.7c-0.7,0-1.1,0.2-1.3,0.6c-0.2,0.4-0.2,1.5-0.2,3.4v2.4H123.3z"
			/>
		<path d="M165.6,326.5v11.4h-8.8v45.5H142v-45.5h-8.8v-11.4H165.6z"/>
		<path d="M190.3,326.5v7.4h-14.6v-7.4H190.3z M190.3,336.7v46.7h-14.6v-46.7H190.3z"/>
		<path d="M234,354.3h-13.4V349c0-1.9-0.2-3.1-0.5-3.8c-0.3-0.7-0.9-1-1.7-1c-0.8,0-1.4,0.3-1.7,0.9s-0.4,1.9-0.4,3.9v22
			c0,1.7,0.2,2.9,0.6,3.7s1,1.2,1.9,1.2c1,0,1.6-0.4,2-1.3s0.5-2.5,0.5-4.9v-5.6H234c0,3.7-0.2,6.5-0.4,8.4s-1,3.8-2.4,5.7
			s-3.1,3.4-5.2,4.4s-4.8,1.5-7.9,1.5c-4,0-7.2-0.7-9.5-2.1c-2.3-1.4-4-3.3-5-5.8c-1-2.5-1.5-6-1.5-10.5v-13.3c0-4,0.4-6.9,1.2-9
			c0.8-2,2.5-3.8,5.1-5.4s5.8-2.4,9.5-2.4c3.7,0,6.9,0.8,9.5,2.4s4.4,3.6,5.2,5.9S234,350,234,354.3z"/>
		<path d="M276,336.7l-5.8,18.6l7.5,28.1h-13.7l-4.4-20.3l0,20.3h-14.2v-56.9h14.2l0,23.9l4.4-13.6H276z"/>
		<path d="M319.2,360.9h-18.4V371c0,2.1,0.2,3.5,0.5,4.1c0.3,0.6,0.9,0.9,1.8,0.9c1.1,0,1.8-0.4,2.2-1.2c0.4-0.8,0.5-2.4,0.5-4.7
			v-6.2h13.5v3.4c0,2.9-0.2,5.1-0.5,6.6c-0.4,1.5-1.2,3.2-2.5,5s-3,3.1-5.1,4c-2.1,0.9-4.6,1.3-7.7,1.3c-3,0-5.6-0.4-7.9-1.3
			c-2.3-0.9-4.1-2.1-5.4-3.6c-1.3-1.5-2.2-3.2-2.7-5s-0.7-4.5-0.7-7.9v-13.6c0-4.1,0.5-7.3,1.7-9.7c1.1-2.4,2.9-4.2,5.4-5.4
			c2.5-1.3,5.4-1.9,8.6-1.9c4,0,7.3,0.8,9.9,2.3c2.6,1.5,4.4,3.5,5.4,6c1,2.5,1.6,6,1.6,10.5V360.9z M305,353.3v-3.4
			c0-2.4-0.1-4-0.4-4.7c-0.3-0.7-0.8-1.1-1.6-1.1c-1,0-1.6,0.3-1.8,0.9c-0.2,0.6-0.4,2.2-0.4,4.8v3.4H305z"/>
		<path d="M346,330.5v7.3h3.8v7.4H346v25c0,3.1,0.2,4.8,0.5,5.1s1.6,0.5,4,0.5v7.5h-5.7c-3.2,0-5.5-0.1-6.9-0.4
			c-1.4-0.3-2.6-0.9-3.7-1.9s-1.7-2.1-2-3.3c-0.3-1.3-0.4-4.2-0.4-8.8v-23.7h-3.1v-7.4h3.1v-7.3H346z"/>
	</g>
</g>
<g>
	<g>
		<linearGradient id="SVGID_2_" gradientUnits="userSpaceOnUse" x1="100.4397" y1="376.7508" x2="332.1708" y2="242.9608">
			<stop  offset="8.938547e-02" style="stop-color:#FF1E24"/>
			<stop  offset="0.2514" style="stop-color:#E31E24"/>
			<stop  offset="1" style="stop-color:#D11E24"/>
		</linearGradient>
		<path style="fill:url(#SVGID_2_);" d="M130.7,366.4h-12.8v7c0,1.5,0.1,2.4,0.3,2.8c0.2,0.4,0.6,0.6,1.2,0.6c0.7,0,1.3-0.3,1.5-0.8
			c0.3-0.6,0.4-1.7,0.4-3.3v-4.3h9.4v2.4c0,2-0.1,3.5-0.4,4.6c-0.3,1.1-0.8,2.2-1.8,3.4c-0.9,1.2-2.1,2.1-3.5,2.8
			c-1.4,0.6-3.2,0.9-5.4,0.9c-2.1,0-3.9-0.3-5.5-0.9c-1.6-0.6-2.8-1.4-3.7-2.5c-0.9-1.1-1.5-2.2-1.8-3.5c-0.3-1.3-0.5-3.1-0.5-5.5
			v-9.5c0-2.8,0.4-5.1,1.1-6.7c0.8-1.6,2-2.9,3.8-3.8c1.7-0.9,3.7-1.3,6-1.3c2.8,0,5.1,0.5,6.9,1.6c1.8,1.1,3.1,2.4,3.8,4.2
			c0.7,1.7,1.1,4.2,1.1,7.3V366.4z M120.8,361.1v-2.4c0-1.7-0.1-2.8-0.3-3.3c-0.2-0.5-0.5-0.7-1.1-0.7c-0.7,0-1.1,0.2-1.3,0.6
			c-0.2,0.4-0.2,1.5-0.2,3.4v2.4H120.8z"/>
		<linearGradient id="SVGID_3_" gradientUnits="userSpaceOnUse" x1="60.6653" y1="400.5594" x2="455.474" y2="172.6165">
			<stop  offset="8.938547e-02" style="stop-color:#FF1E24"/>
			<stop  offset="0.2514" style="stop-color:#E31E24"/>
			<stop  offset="1" style="stop-color:#D11E24"/>
		</linearGradient>
		<path style="fill:url(#SVGID_3_);" d="M163,324.9v11.4h-8.8v45.5h-14.8v-45.5h-8.8v-11.4H163z"/>
		<linearGradient id="SVGID_4_" gradientUnits="userSpaceOnUse" x1="-20.1619" y1="469.1827" x2="590.1315" y2="116.8296">
			<stop  offset="8.938547e-02" style="stop-color:#FF1E24"/>
			<stop  offset="0.2514" style="stop-color:#E31E24"/>
			<stop  offset="1" style="stop-color:#D11E24"/>
		</linearGradient>
		<path style="fill:url(#SVGID_4_);" d="M187.8,324.9v7.4h-14.6v-7.4H187.8z M187.8,335.1v46.7h-14.6v-46.7H187.8z"/>
		<linearGradient id="SVGID_5_" gradientUnits="userSpaceOnUse" x1="65.8116" y1="444.931" x2="404.7451" y2="249.2477">
			<stop  offset="8.938547e-02" style="stop-color:#FF1E24"/>
			<stop  offset="0.2514" style="stop-color:#E31E24"/>
			<stop  offset="1" style="stop-color:#D11E24"/>
		</linearGradient>
		<path style="fill:url(#SVGID_5_);" d="M231.5,352.7h-13.4v-5.4c0-1.9-0.2-3.1-0.5-3.8c-0.3-0.7-0.9-1-1.7-1
			c-0.8,0-1.4,0.3-1.7,0.9s-0.4,1.9-0.4,3.9v22c0,1.7,0.2,2.9,0.6,3.7s1,1.2,1.9,1.2c1,0,1.6-0.4,2-1.3s0.5-2.5,0.5-4.9v-5.6h12.7
			c0,3.7-0.2,6.5-0.4,8.4s-1,3.8-2.4,5.7s-3.1,3.4-5.2,4.4s-4.8,1.5-7.9,1.5c-4,0-7.2-0.7-9.5-2.1c-2.3-1.4-4-3.3-5-5.8
			c-1-2.5-1.5-6-1.5-10.5V351c0-4,0.4-6.9,1.2-9c0.8-2,2.5-3.8,5.1-5.4s5.8-2.4,9.5-2.4c3.7,0,6.9,0.8,9.5,2.4s4.4,3.6,5.2,5.9
			S231.5,348.4,231.5,352.7z"/>
		<linearGradient id="SVGID_6_" gradientUnits="userSpaceOnUse" x1="24.9539" y1="488.5019" x2="423.4847" y2="258.41">
			<stop  offset="8.938547e-02" style="stop-color:#FF1E24"/>
			<stop  offset="0.2514" style="stop-color:#E31E24"/>
			<stop  offset="1" style="stop-color:#D11E24"/>
		</linearGradient>
		<path style="fill:url(#SVGID_6_);" d="M273.5,335.1l-5.8,18.6l7.5,28.1h-13.7l-4.4-20.3l0,20.3h-14.2v-56.9h14.2l0,23.9l4.4-13.6
			H273.5z"/>
		<linearGradient id="SVGID_7_" gradientUnits="userSpaceOnUse" x1="61.2887" y1="496.5234" x2="394.5453" y2="304.1177">
			<stop  offset="8.938547e-02" style="stop-color:#FF1E24"/>
			<stop  offset="0.2514" style="stop-color:#E31E24"/>
			<stop  offset="1" style="stop-color:#D11E24"/>
		</linearGradient>
		<path style="fill:url(#SVGID_7_);" d="M316.7,359.3h-18.4v10.1c0,2.1,0.2,3.5,0.5,4.1c0.3,0.6,0.9,0.9,1.8,0.9
			c1.1,0,1.8-0.4,2.2-1.2c0.4-0.8,0.5-2.4,0.5-4.7v-6.2h13.5v3.4c0,2.9-0.2,5.1-0.5,6.6c-0.4,1.5-1.2,3.2-2.5,5s-3,3.1-5.1,4
			c-2.1,0.9-4.6,1.3-7.7,1.3c-3,0-5.6-0.4-7.9-1.3c-2.3-0.9-4.1-2.1-5.4-3.6c-1.3-1.5-2.2-3.2-2.7-5s-0.7-4.5-0.7-7.9v-13.6
			c0-4.1,0.5-7.3,1.7-9.7c1.1-2.4,2.9-4.2,5.4-5.4c2.5-1.3,5.4-1.9,8.6-1.9c4,0,7.3,0.8,9.9,2.3c2.6,1.5,4.4,3.5,5.4,6
			c1,2.5,1.6,6,1.6,10.5V359.3z M302.5,351.7v-3.4c0-2.4-0.1-4-0.4-4.7c-0.3-0.7-0.8-1.1-1.6-1.1c-1,0-1.6,0.3-1.8,0.9
			c-0.2,0.6-0.4,2.2-0.4,4.8v3.4H302.5z"/>
		<linearGradient id="SVGID_8_" gradientUnits="userSpaceOnUse" x1="-34.4878" y1="570.7673" x2="409.6788" y2="314.3276">
			<stop  offset="8.938547e-02" style="stop-color:#FF1E24"/>
			<stop  offset="0.2514" style="stop-color:#E31E24"/>
			<stop  offset="1" style="stop-color:#D11E24"/>
		</linearGradient>
		<path style="fill:url(#SVGID_8_);" d="M343.5,328.9v7.3h3.8v7.4h-3.8v25c0,3.1,0.2,4.8,0.5,5.1s1.6,0.5,4,0.5v7.5h-5.7
			c-3.2,0-5.5-0.1-6.9-0.4c-1.4-0.3-2.6-0.9-3.7-1.9s-1.7-2.1-2-3.3c-0.3-1.3-0.4-4.2-0.4-8.8v-23.7h-3.1v-7.4h3.1v-7.3H343.5z"/>
	</g>
</g>
</svg>
