<?xml version="1.0" encoding="utf-8"?>
<!-- Generator: Adobe Illustrator 23.0.3, SVG Export Plug-In . SVG Version: 6.00 Build 0)  -->
<svg version="1.0" id="Layer_1" xmlns:serif="http://www.serif.com/"
	 xmlns="http://www.w3.org/2000/svg" xmlns:xlink="http://www.w3.org/1999/xlink" x="0px" y="0px" viewBox="0 0 456 456"
	 style="enable-background:new 0 0 456 456;" xml:space="preserve">
<style type="text/css">
	.st0{fill:none;}
	.st1{fill:#E31E24;}
</style>
<g>
	<path class="st0" d="M207.7,172.1c-1.1,4.5-2.2,8.6-3.3,13.1c7,0.8,7,4.9,5.8,9.8c-2.1,8.9-3.6,18-5.8,26.9
		c-1.4,5.7-1.7,13.8-5.5,16.5c-9.3,6.4-8.1,15.4-10,23c6.6,0.5,12.6,0.9,19.5,1.5c0.6-0.7,2.6-4.6,3.8-4.4c9,1.7,7.7-5.5,8.4-9.8
		c2.9-16.6,5-33.4,7.9-50c1.8-10.1,4.5-20,6.8-30l2.9,0.4c0,2.6,0.4,5.4-0.1,7.9c-4.5,24.7-9.1,49.3-13.6,74
		c-0.5,2.6-0.1,5.4-0.1,8.1l1.9,0.1c9.5-29.6,7.2-62,20.8-90.7c0.9,4.1,0.9,7.9,0.1,11.7c-5.1,25.3-10.3,50.6-15.6,75.8
		c-0.9,4.5-1.7,8.8,5.2,10.9c1.3-3.5,3.2-6.6,3.4-9.9c0.6-7.1-0.5-14.4,0.6-21.3c2.7-17.4,6.4-34.7,9.4-52
		c2.1-12.4,3.6-24.8,5.4-37.3c-1-0.6-1.1-0.6-2.1-1.2c-2.4,2-4.8,4-6,5h-9.7c-0.9-2.4-2.1-5.7-3.3-8.9c-1.7,0.2-1.5,0.2-3.2,0.4
		c-0.9,8-2,16-2.7,24c-0.4,5.4,0.4,10.9-0.5,16.1c-1.9,12-4.3,24-7,35.8c-2.1,9.2-5,18.3-7.1,26c-3.5-1.7-6.4-3.1-10-4.9
		c3.4-21.6,12.9-43.2,12.1-66.8H207.7z M136.7,208.7c0.7,3.9,1,6.2,1.5,8.5c0.6,2.6,1.6,5,1.9,7.6c2.6,23.7,16.2,41.3,34.4,54.3
		c35.6,25.5,79.9,22.8,113.9-3.9c4.7-3.7,6.7-11,11.5-14.5c6.9-5,9.1-11.8,11.3-19c1.5-4.8,2.7-9.4,2.8-14.7
		c0.1-10.2,4.2-20.5,3.5-30.5c-2.4-33-23.6-54.5-49-71.9c-7.6-5.2-17.8-7.4-27.1-8.9c-27.9-4.4-52.4,4.7-74,21.7
		c-7.9,6.2-14.7,13.9-18,23.9c2.4-1.4,4.4-3.2,5.8-5.4c10.9-17.8,28.3-27.5,47-33.2c28.7-8.7,56-3.4,79,16.5
		c9,7.7,17.7,16.8,23.4,27c7.7,14,10.5,29.8,8.6,46.4c-3.6,31.7-19.3,55.3-47.8,68.8c-25.5,12-51.9,11.5-77.6-1.5
		c-2.2-1.1-5-1.1-6.6-1.4c-1.8-2.1-3.3-4-4.9-5.7c-7.7-8.1-15.8-15.9-22.9-24.5c-3.7-4.4-7.5-10.1-8-15.5
		C144.6,224.5,143.8,216.7,136.7,208.7z M268,164c1.4,3.8,3.5,6.5,3.2,9c-1.2,10.3-1.5,21.1-11.6,27.9c-1.1,0.7-1.3,2.9-1.7,4.5
		c-4.1,16.2-6.4,32.7-4.2,49.4c0.3,2.4,2.4,4.7,3.7,7c2-2.2,4.5-4.1,6-6.7c1.4-2.4,1.8-5.3,2.7-8.1c0.6,0.2,1.3,0.3,1.9,0.5
		c0.4,2.6,0.8,5.3,1.2,7.9c0.8,0.1,1.5,0.1,2.3,0.2c4.6-9.2,2.7-19.6,3.9-29.7c-0.9,1.3-1.9,2.6-3.8,5.1c-0.3-3.1-0.7-4.7-0.6-6.2
		c1.1-13.9,2.8-27.9,3.2-41.8c0.3-9.2-1-18.5-1.9-27.7c-0.1-1.4-1.6-3.5-2.7-3.7c-1.2-0.2-3.4,1-4.2,2.2
		c-7.7,11.6-7.3,24.6-6.2,37.8C266.2,184.2,260.5,173.6,268,164z M167.1,259.6c1.4,0.4,2.8,0.8,4.2,1.3c1.5-4.4,3.6-8.7,4.5-13.3
		c4-21.9,12.7-42.2,21.1-62.6c3.1-7.4,5.3-15.3,7.3-23.1c0.5-2.2-0.7-6.2-2.5-7.2c-3.2-1.9-7.4-2.3-11.7-3.5
		c-2.4,15.2-9.8,29.7-8.3,45.9c5.1-8.4,2.9-19.6,11.6-26.5c0.7,3.1,0.8,6.2-0.2,8.8c-6.6,18.2-13.8,36.2-20.1,54.5
		C170.2,242.1,169,250.9,167.1,259.6z M261.7,145.1c11-6.4,15.5-4.7,20.2,7.9c0.3,0.9,0.8,1.8,1,2.8c8.8,40,6.7,78.7-11.8,116
		c2.2-3,4.8-6.1,6.3-9.7c14.1-34.5,16.6-70,7.7-106.2c-1.1-4.6-4.1-8.9-7-12.8C274.1,137.6,265.7,136.8,261.7,145.1z M196.2,213.4
		c-1-0.3-1.9-0.6-2.9-0.9c-1,2.6-2.1,5.2-2.9,7.8c-3.5,11.2-6.9,22.4-10.1,33.6c-0.4,1.5,1.1,3.7,1.8,5.5c1.1-1.1,2.9-1.9,3.3-3.2
		C189.1,242,192.7,227.7,196.2,213.4z M216.4,160.6c7.2-8.8,10-25,6.1-31.8C218.2,138.8,216.7,148.5,216.4,160.6z M144.2,167.5
		c-2.4,11.6-4.6,22.1-7.1,34C142.9,195.4,147.9,172.8,144.2,167.5z"/>
	<path d="M337.5,239.7c-3.4,4.1-1.1,12.8-10.8,11.5c1.6,3.1,2.5,5,3.6,7.1c-4.7,5.8-8.6,1.8-14.6-0.2c0.6,2.7,1.2,5.3,2.1,9.3
		c-7.4-4.4-9.8,0.6-13.6,5.3c-5.1,6.4-11.6,12-18.3,16.9c-5.2,3.7-11.5,5.8-17.9,8.9c0.3,0.7,0.7,1.8,1.3,3.5c-6.9,1-7.6,5.8-7,11.8
		c0.9,8.6,1.5,17.2,1.8,25.7c0.1,2.2-1.4,5-3,6.6c-0.9,0.9-4.6,0.5-5.3-0.4c-1.1-1.8-1.2-4.4-1.2-6.7c0-5.6,0.8-11.3,0.2-16.9
		c-1.2-9.5-6.5-13.3-16.2-12.5c-2.2,5.8-4.2,11.9-6.9,17.8c-0.7,1.4-3.8,3-5.2,2.5c-1.5-0.5-3-3.1-3.4-5
		c-2.9-13.8-10.3-20.3-22.1-16.9c-2.1-1.9-3.4-3.7-5.1-4.4c-19-8.1-34.6-20.7-49.6-34.7c-3.9-3.7-5.8-13-14.7-10.5
		c-1.3-9.4-17.7-10-13.3-22.7c0.1-0.4-1.6-1.3-2.4-2c0-3,0-5.9,0-8.9c1.5-1.2,4.5-2.8,4.3-3.6c-1.7-7.1,5-12.3,3.9-19.1
		c-0.3-1.5-0.2-4.5,0.3-4.6c6.3-1.6,4.5-7.2,5.7-11.2c2.3-7.6,3.1-15.9,6.6-22.9c8.3-16.4,20.5-30.3,36.1-39.7
		c4.9-3,10.2-6.9,16.3-8.6c3.6-1.1,6.9-3.4,8.6-4.3c1.3,2.2,2,3.3,2.6,4.4c-9,3.8-18,7.6-27.8,11.7l-0.8,4.5
		c-6.1-3.5-5.6,1.6-7.6,4.8c-3.5,5.4-8.9,9.7-12.8,14.9c-23.9,31.6-22.2,80.3,1.3,110.6c18.4,23.6,41.7,37.6,71.2,39.4
		c33,2.1,60.3-10.6,81.3-36.4c12.1-14.9,14.8-33.2,18.8-51c0.5-2.3,1.3-4.6,2-6.9c-0.9,9.3-1.7,18.7-2.6,28c1.1,0.2,0.6,0.1,1.7,0.3
		c1.1-4.7,2.1-9.5,3.7-16.3c3.6,4.8,6.3,8.3,8.9,11.8C337.7,233.8,337.6,236.5,337.5,239.7z"/>
	<path d="M246.1,106.9c11,3.5,21.9,6.9,32.9,10.6c1.8,0.6,3.2,2,4.9,2.8c4.8,2.3,9.8,4,14.3,6.8c2.8,1.7,5.8,4.4,6.9,7.3
		c7.6,18.8,21,35.4,21.5,56.9c0.1,3.1,1.9,6.1,2.8,9.1c1,3.4,1.2,6.5-3.6,7c-1.4-7.4-2.5-14.9-4.3-22.2
		c-6.5-26.3-20.4-46.9-44.7-60.7c-11.3-6.4-22.5-11.1-35.1-13.5c-0.8-0.1-1.1-2.7-1.6-4.2C242.2,106.9,244.2,106.9,246.1,106.9z"/>
	<path d="M200.2,115.9c4.8-4.3,9.5-8.6,16.4-9c1,0,2,0,3,0c-0.6,3.6-1.4,5.7-6.5,5C209,111.4,204.5,114.4,200.2,115.9z"/>
	<path class="st1" d="M207.9,169.9c3.2,0,6.4,0.1,9.3,0.1c0.7,23.4-9.5,46.7-12.8,68.1c0.3,0.1,0.5,0.3,0.8,0.4
		c0.9,0.5,1.8-1.3,3.3-1.9c0.6-0.2,3-0.2,3.5,0.2c0.5,0.4-0.5,4.8,0.5,5.3c0.6,0.3,1.2,0.6,1.8,0.9c1-13.8,4.9-16.6,7-25.7
		c2.7-11.7,5-23.6,6.9-35.5c0.8-5.2-0.2-10.5-0.3-15.8c-0.1-9,1.6-17.4,2.5-25.3c1.1-0.1,4.9,0.1,6,0c1.2,3.2,0.4,7.5,1.3,9.8
		c0.8,0,2.6-0.1,2.6-1c0-2.3,0.8-3,1.7-3.1c1,0,2.8,1.8,3.4,4.1c0.1,0.6,1.2,0,1.9,0c1.2-1,0.4-3.4,2.8-5.4c1.5-2,4.5-1.4,5.2-1
		c0.5,13.4-3.3,27.3-5.4,39.6c-2.9,17.2-5.6,34.2-8.3,51.4c-1.1,6.9,0.3,13.1-0.3,20.2c-0.3,3.2-3.4,7.3-4.6,10.8
		c-6.8-2.1-6.9-6.3-6-10.8c5.2-25,11.3-49.9,16.3-75c0.7-3.7,0.8-7.6-0.1-11.6c-13.4,28.4-11.2,60.5-20.6,89.7
		c-0.6,0-1.3-0.1-1.9-0.1c0-2.7-0.4-5.5,0.1-8.1c4.4-24.4,9-48.8,13.4-73.2c0.5-2.5,0.1-5.2,0.1-7.8c-1-0.1-1.9-0.3-2.9-0.4
		c-2.3,9.9-5,19.7-6.7,29.7c-2.9,16.4-4.9,33-7.8,49.4c-0.7,4.3,0.5,11.4-8.3,9.7c-1.2-0.2-4.4,6-5,6.7c-5.7-4.3-11.8-4.8-19-1.7
		c1.9-7.6,0.8-21.4,10.3-25.5c4.3-1.9,2.3-6.6,3.6-12.3c2.1-8.8,5.2-21,7.2-29.9c1.1-4.9,1.1-10.5-5.8-11.3
		C204.8,179.1,206.8,174.4,207.9,169.9z"/>
	<path d="M136.7,208.7c7.1,7.9,7.9,15.8,8.7,24.2c0.5,5.4,4.3,11.1,8,15.5c7.2,8.6,15.3,16.4,22.9,24.5c1.6,1.7,3.1,3.6,4.9,5.7
		c1.6,0.3,4.4,0.3,6.6,1.4c25.6,13.1,52.1,13.6,77.6,1.5c28.5-13.4,44.1-37.1,47.8-68.8c1.9-16.5-0.9-32.4-8.6-46.4
		c-5.6-10.2-14.4-19.3-23.4-27c-23-19.9-50.3-25.2-79-16.5c-18.7,5.7-36.1,15.4-47,33.2c-1.3,2.2-3.4,4-5.8,5.4
		c3.2-10,10.1-17.7,18-23.9c21.6-17,46.2-26.1,74-21.7c9.3,1.5,19.6,3.7,27.1,8.9c25.4,17.4,46.6,38.8,49,71.9
		c0.7,10-3.4,20.3-3.5,30.5c-0.1,5.4-1.3,9.9-2.8,14.7c-2.2,7.2-4.4,14-11.3,19c-4.8,3.5-6.8,10.8-11.5,14.5
		c-34,26.6-78.3,29.4-113.9,3.9c-18.2-13.1-31.8-30.6-34.4-54.3c-0.3-2.6-1.4-5.1-1.9-7.6C137.7,215,137.4,212.7,136.7,208.7z"/>
	<path class="st1" d="M268,164c-8.9,8.6-0.1,26.5-9.9,26.6c-1.2-13.2-1.5-25.9,6.2-37.5c0.8-1.2,4.3-3.8,5.5-3.6
		c1.1,0.2,3.9,4.1,4,5.5c0.9,9.2,0.7,18.8,0.4,28c-0.5,14-2.2,27.9-3.2,41.8c-0.1,1.6,0.6,1.5,0.9,4.5c1.9-2.5,2.5-5.1,3.5-6.4
		c1.6,9.9,1.6,24.5-3.9,32.7c-0.8-0.1-1.5-0.1-2.3-0.2c-1.7-2.3-0.8-5.3-1.2-7.9c-0.6-0.2-1.3-0.3-1.9-0.5c-0.9,2.7-1.3,5.7-2.7,8.1
		c-1.5,2.5-2.7,5.5-6,6.7c-4.5-3.1-3.4-4.5-3.7-7c-2.2-16.7,0.1-33.2,4.2-49.4c0.4-1.6-0.6-5.3,0.6-5.9
		c10.6-4.7,10.7-16.2,11.9-26.4C270.6,170.6,269.4,167.8,268,164z M261.7,242.6c2.9-12.6,5.4-21.4,7.9-32.5
		C256.5,220.1,253.2,231.6,261.7,242.6z"/>
	<path class="st1" d="M167.1,259.6c0.7-8.9,1.4-17.2,4.3-25.5c6.3-18.3,15.4-36.5,20.9-55c0.8-2.7,1.8-5.5,1.1-8.6
		c-8.8,7-5.4,19.4-11.6,26.5c-5.3-11.3,4.6-34.3,8.3-48.9c3.9,2.5,8.6,4.4,13.6,5.1c2,0.3,1,6.5,0.5,8.7c-1.9,7.8-4.2,15.7-7.3,23.1
		c-8.4,20.4-17.2,40.7-21.1,62.6c-0.8,4.6-2.9,8.9-4.5,13.3C169.9,260.4,168.5,260,167.1,259.6z"/>
	<path class="st1" d="M259.2,146.6c9.5-16,16.3-9.8,20.2-4.4c2.9,3.9,5.7,8.9,6.9,13.5c8.9,36.2,5.2,73.6-8.9,108.1
		c-1.5,3.6-6.5,4.8-8.7,7.9c19.3-36.5,19.7-75.5,14.2-116c-0.1-1-0.7-1.8-1-2.8C277.8,140.7,270.3,141.2,259.2,146.6z"/>
	<path class="st1" d="M196.9,210.1c-2.7,14.9-7.8,31.9-11.5,46.2c-0.3,1.3-2.1,2.1-3.3,3.2c-0.6-1.8-3.5-3.4-3-4.9
		c3.1-11.3,6.7-23.3,10.2-34.4c0.8-2.7,1.9-7.4,2.9-10C193.1,210.3,196,209.8,196.9,210.1z"/>
	<path class="st1" d="M216.4,160.6c-1.5-11.9,0-24.6,6.5-34C228.2,132.7,225.2,153,216.4,160.6z"/>
	<path d="M144.2,167.5c3.7,5.3-1.3,27.9-7.1,34C139.6,189.6,141.7,179.2,144.2,167.5z"/>
	<path class="st0" d="M261.7,245c-8.5-11-5.3-24.9,7.9-34.9C267.1,221.2,264.6,232.4,261.7,245z"/>
</g>
</svg>
