<?xml version="1.0" encoding="utf-8"?>
<!-- Generator: Adobe Illustrator 23.0.3, SVG Export Plug-In . SVG Version: 6.00 Build 0)  -->
<svg version="1.1" id="Layer_1" xmlns:serif="http://www.serif.com/"
	 xmlns="http://www.w3.org/2000/svg" xmlns:xlink="http://www.w3.org/1999/xlink" x="0px" y="0px" viewBox="0 0 456 456"
	 style="enable-background:new 0 0 456 456;" xml:space="preserve">
<style type="text/css">
	.st0{fill:#FFFFFF;}
	.st1{fill:none;}
	.st2{fill:#E31E24;}
</style>
<path class="st0" d="M366.6,412H89.4c-25,0-45.4-20.3-45.4-45.4V89.4C44,64.3,64.3,44,89.4,44h277.3c25,0,45.4,20.3,45.4,45.4v277.3
	C412,391.7,391.7,412,366.6,412z"/>
<g>
	<path class="st1" d="M204.4,160.2c-1.4,5.6-2.6,10.5-4.1,16.1c8.6,1,8.5,6,7.1,12c-2.5,11-4.5,22.1-7.1,33c-1.7,7-2.1,17-6.8,20.2
		c-11.4,7.9-9.9,18.9-12.3,28.2c8,0.6,15.4,1.2,23.9,1.8c0.7-0.9,3.1-5.7,4.6-5.4c11,2.1,9.4-6.7,10.3-12
		c3.6-20.4,6.1-40.9,9.7-61.3c2.2-12.4,5.5-24.5,8.3-36.8c1.2,0.2,2.4,0.3,3.6,0.5c0,3.2,0.5,6.6-0.1,9.7
		c-5.5,30.3-11.2,60.5-16.6,90.8c-0.6,3.2-0.1,6.7-0.1,10c0.8,0.1,1.6,0.1,2.4,0.2c11.6-36.3,8.9-76,25.5-111.2
		c1.1,5,1.1,9.7,0.1,14.3c-6.3,31-12.7,62-19.2,93c-1.2,5.6-2.1,10.8,6.3,13.3c1.6-4.3,3.9-8.1,4.2-12.1c0.7-8.7-0.6-17.6,0.7-26.2
		c3.3-21.4,7.9-42.5,11.5-63.8c2.6-15.2,4.4-30.5,6.6-45.7c-0.9-0.5-1.7-0.9-2.6-1.4c-2.9,2.4-5.9,4.9-7.3,6.1c-5,0-8.5,0-11.9,0
		c-1.1-3-2.5-6.9-4-10.8c-1.3,0.2-2.7,0.3-4,0.5c-1.1,9.8-2.4,19.5-3.2,29.3c-0.5,6.6,0.5,13.3-0.6,19.8
		c-2.4,14.7-5.3,29.4-8.6,43.9c-2.6,11.3-6.1,22.5-8.7,31.9c-4.3-2.1-7.8-3.9-12.2-6.1c4.1-26.5,15.8-52.9,14.9-81.9
		C211.3,160.2,208.3,160.2,204.4,160.2z M116.1,205.8c0.8,4.9,1.2,7.7,1.8,10.6c0.7,3.2,2,6.2,2.4,9.4c3.3,29.4,20.1,51.1,42.7,67.4
		c44.1,31.6,99,28.2,141.2-4.8c5.9-4.6,8.3-13.7,14.3-18c8.6-6.2,11.2-14.6,14-23.6c1.8-6,3.4-11.6,3.5-18.2
		c0.1-12.6,5.3-25.4,4.3-37.8c-3-41-29.3-67.5-60.8-89.1c-9.4-6.4-22-9.2-33.6-11c-34.5-5.5-64.9,5.8-91.8,26.9
		c-9.8,7.7-18.2,17.2-22.3,29.7c3-1.8,5.5-4,7.2-6.7c13.5-22.1,35.1-34.1,58.3-41.1c35.5-10.8,69.4-4.2,98,20.5
		c11.1,9.6,22,20.8,29,33.5c9.5,17.4,13,37,10.7,57.5c-4.5,39.3-23.9,68.6-59.2,85.2c-31.6,14.9-64.4,14.3-96.1-1.9
		c-2.7-1.4-6.2-1.3-8.2-1.7c-2.3-2.6-4.1-4.9-6.1-7c-9.5-10.1-19.6-19.7-28.4-30.4c-4.6-5.5-9.3-12.5-9.9-19.2
		C125.9,225.3,124.9,215.6,116.1,205.8z M278.9,150.4c1.8,4.7,4.3,8.1,4,11.1c-1.5,12.7-1.8,26.2-14.4,34.6
		c-1.4,0.9-1.7,3.6-2.2,5.6c-5,20.1-7.9,40.5-5.2,61.3c0.4,3,3,5.8,4.5,8.7c2.5-2.7,5.6-5.1,7.4-8.2c1.8-2.9,2.3-6.6,3.4-10
		c0.8,0.2,1.6,0.4,2.4,0.6c0.5,3.3,1,6.6,1.4,9.8c0.9,0.1,1.9,0.2,2.8,0.3c5.8-11.3,3.4-24.3,4.9-36.9c-1.2,1.6-2.4,3.2-4.7,6.3
		c-0.4-3.8-0.9-5.8-0.7-7.7c1.3-17.3,3.4-34.5,4-51.8c0.4-11.4-1.2-22.9-2.3-34.3c-0.2-1.7-2-4.3-3.4-4.6c-1.5-0.3-4.2,1.2-5.2,2.7
		c-9.6,14.4-9.1,30.5-7.6,46.8C276.6,175.4,269.6,162.2,278.9,150.4z M153.8,268.8c1.7,0.5,3.5,1,5.2,1.6c1.9-5.5,4.5-10.8,5.5-16.5
		c4.9-27.2,15.8-52.3,26.2-77.6c3.8-9.2,6.6-19,9-28.7c0.7-2.7-0.9-7.7-3-8.9c-4-2.4-9.1-2.9-14.4-4.3
		c-2.9,18.8-12.1,36.8-10.3,56.8c6.3-10.4,3.6-24.3,14.4-32.9c0.9,3.9,0.9,7.6-0.2,10.9c-8.2,22.6-17.1,44.9-24.9,67.6
		C157.7,247.1,156.2,258.1,153.8,268.8z M271,126.8c13.7-7.9,19.2-5.8,25.1,9.8c0.4,1.1,1,2.2,1.3,3.4
		c10.9,49.5,8.3,97.6-14.7,143.8c2.8-3.7,6-7.6,7.8-12c17.5-42.8,20.6-86.8,9.5-131.6c-1.4-5.7-5.1-11-8.6-15.9
		C286.5,117.6,276,116.6,271,126.8z M189.9,211.5c-1.2-0.4-2.4-0.7-3.6-1.1c-1.2,3.2-2.6,6.4-3.6,9.7c-4.3,13.9-8.6,27.7-12.5,41.7
		c-0.5,1.9,1.4,4.5,2.2,6.8c1.4-1.3,3.6-2.4,4.1-3.9C181.2,247,185.5,229.2,189.9,211.5z M215,146.1c8.9-11,12.3-30.9,7.6-39.4
		C217.1,119,215.3,131.1,215,146.1z M125.4,154.7c-3,14.4-5.7,27.4-8.8,42.2C123.8,189.3,130,161.2,125.4,154.7z"/>
	<path d="M365.3,243.9c-4.5,5-1.4,16.1-13.6,14.4c2,3.8,3.2,6.2,4.5,8.8c-5.8,7.2-10.7,2.3-18-0.2c0.7,3.3,1.5,6.6,2.6,11.6
		c-9.2-5.4-12.2,0.7-16.9,6.6c-6.3,7.9-14.4,14.9-22.6,20.9c-6.4,4.6-14.3,7.2-22.2,11c0.3,0.8,0.9,2.3,1.6,4.3
		c-8.6,1.3-9.5,7.2-8.7,14.6c1.1,10.6,1.9,21.2,2.2,31.9c0.1,2.8-1.7,6.1-3.8,8.2c-1.1,1.1-5.7,0.7-6.5-0.5
		c-1.4-2.2-1.4-5.5-1.5-8.3c0-7,1-14,0.2-20.9c-1.5-11.8-8-16.5-20.1-15.5c-2.7,7.2-5.2,14.8-8.5,22c-0.8,1.8-4.8,3.7-6.5,3.1
		c-1.9-0.6-3.7-3.8-4.2-6.2c-3.6-17.1-12.7-25.1-27.4-20.9c-2.6-2.3-4.2-4.6-6.3-5.5c-23.5-10-42.8-25.6-61.4-43
		c-4.9-4.5-7.2-16.1-18.2-13c-1.6-11.6-21.9-12.3-16.4-28.1c0.2-0.4-2-1.7-3-2.5c0-3.7,0-7.3,0-11c1.9-1.5,5.6-3.5,5.3-4.4
		c-2.1-8.7,6.2-15.2,4.8-23.6c-0.3-1.9-0.2-5.5,0.3-5.7c7.7-2,5.6-8.9,7.1-13.8c2.8-9.4,3.9-19.7,8.2-28.3
		c10.3-20.3,25.3-37.5,44.7-49.2c6.1-3.7,12.7-8.5,20.2-10.7c4.5-1.3,8.5-4.2,10.7-5.4c1.6,2.7,2.4,4.1,3.3,5.5
		c-11.2,4.7-22.3,9.4-34.4,14.5c-0.1,0.9-0.5,2.8-0.9,5.6c-7.6-4.3-6.9,2-9.4,6c-4.4,6.7-11,11.9-15.9,18.4
		c-29.5,39.1-27.5,99.4,1.6,136.9c22.8,29.3,51.6,46.5,88.1,48.8c40.8,2.6,74.7-13.1,100.7-45c15-18.4,18.3-41.1,23.3-63.2
		c0.7-2.9,1.6-5.7,2.5-8.5c-1.1,11.5-2.1,23.1-3.2,34.6c0.7,0.1,1.4,0.2,2.1,0.4c1.3-5.9,2.6-11.7,4.5-20.1
		c4.5,5.9,7.8,10.3,11.1,14.6C365.3,236.5,365.3,240.2,365.3,243.9z"/>
	<path d="M251.8,79.1c13.6,4.3,27.2,8.6,40.7,13.1c2.2,0.7,4,2.5,6.1,3.5c5.9,2.8,12.2,5,17.7,8.4c3.5,2.1,7.2,5.4,8.6,9.1
		c9.4,23.3,26,43.9,26.7,70.6c0.1,3.8,2.3,7.5,3.4,11.3c1.2,4.2,1.4,8-4.5,8.7c-1.7-9.2-3.1-18.4-5.3-27.5
		c-8-32.7-25.2-58.1-55.4-75.2c-14-7.9-27.9-13.7-43.4-16.7c-1-0.2-1.3-3.4-2-5.2C246.9,79.1,249.4,79.1,251.8,79.1z"/>
	<path d="M194.9,90.2c5.9-5.3,11.8-10.7,20.3-11.1c1.2,0,2.4,0,3.7,0c-0.8,4.5-1.7,7-8,6.3C205.8,84.7,200.2,88.4,194.9,90.2z"/>
	<path class="st2" d="M204.4,157.6c3.9,0,7.9,0.2,11.6,0.2c0.9,28.9-11.8,57.9-15.9,84.4c0.3,0.2,0.6,0.3,1,0.5
		c1.2,0.6,2.2-1.6,4.1-2.4c0.7-0.3,3.7-0.2,4.3,0.3c0.7,0.5-0.6,6,0.6,6.6c0.7,0.4,1.5,0.7,2.2,1.1c1.3-17.1,6.1-20.6,8.7-31.9
		c3.3-14.6,6.2-29.2,8.6-43.9c1-6.4-0.3-13-0.3-19.6c-0.1-11.2,1.9-21.6,3-31.3c1.3-0.2,6.1,0.2,7.4,0c1.4,3.9,0.5,9.2,1.6,12.2
		c1,0,3.2-0.1,3.2-1.2c0-2.8,1-3.8,2.2-3.8c1.2-0.1,3.5,2.2,4.2,5c0.2,0.7,1.5,0,2.3,0c1.4-1.2,0.5-4.3,3.5-6.7
		c1.8-2.5,5.5-1.8,6.4-1.3c0.6,16.7-4.1,33.9-6.6,49c-3.6,21.3-7,42.3-10.3,63.7c-1.3,8.5,0.4,16.3-0.4,25c-0.3,4-4.2,9.1-5.8,13.4
		c-8.4-2.5-8.6-7.8-7.4-13.4c6.5-31,14-61.9,20.2-92.9c0.9-4.6,1-9.4-0.1-14.3c-16.6,35.2-13.9,74.9-25.5,111.2
		c-0.8-0.1-1.6-0.1-2.4-0.2c0-3.3-0.5-6.8,0.1-10c5.5-30.3,11.2-60.5,16.6-90.8c0.6-3.1,0.1-6.5,0.1-9.7c-1.2-0.2-2.4-0.3-3.6-0.5
		c-2.8,12.2-6.1,24.4-8.3,36.8c-3.6,20.4-6.1,40.9-9.7,61.3c-0.9,5.3,0.7,14.1-10.3,12c-1.5-0.3-5.5,7.4-6.2,8.3
		c-7.1-5.3-14.7-5.9-23.5-2.1c2.4-9.4,1-26.5,12.8-31.6c5.4-2.3,2.8-8.2,4.5-15.2c2.6-10.9,6.4-26,9-37c1.4-6.1,1.4-13-7.2-14
		C200.5,169.1,203,163.1,204.4,157.6z"/>
	<path d="M116.1,205.8c8.8,9.8,9.8,19.5,10.7,30c0.6,6.7,5.4,13.7,9.9,19.2c8.9,10.6,18.9,20.3,28.4,30.4c2,2.1,3.8,4.4,6.1,7
		c2,0.4,5.4,0.3,8.2,1.7c31.8,16.2,64.6,16.8,96.1,1.9c35.3-16.7,54.7-46,59.2-85.2c2.4-20.5-1.1-40.1-10.7-57.5
		c-7-12.7-17.9-23.9-29-33.5c-28.5-24.6-62.4-31.3-98-20.5c-23.2,7.1-44.7,19.1-58.3,41.1c-1.7,2.7-4.2,4.9-7.2,6.7
		c4-12.4,12.5-22,22.3-29.7c26.8-21.1,57.2-32.3,91.8-26.9c11.6,1.8,24.2,4.6,33.6,11c31.5,21.6,57.8,48.1,60.8,89.1
		c0.9,12.4-4.2,25.2-4.3,37.8c-0.1,6.6-1.6,12.3-3.5,18.2c-2.8,9-5.4,17.4-14,23.6c-6,4.3-8.4,13.4-14.3,18
		c-42.2,33-97.1,36.4-141.2,4.8c-22.6-16.2-39.4-38-42.7-67.4c-0.4-3.2-1.7-6.3-2.4-9.4C117.4,213.5,117,210.6,116.1,205.8z"/>
	<path class="st2" d="M278.9,150.4c-11,10.7-0.1,32.9-12.2,32.9c-1.5-16.3-1.8-32.1,7.7-46.5c1-1.5,5.3-4.7,6.8-4.4
		c1.4,0.3,4.8,5.1,5,6.9c1.1,11.4,0.9,23.3,0.5,34.7c-0.6,17.3-2.7,34.6-4,51.8c-0.2,1.9,0.7,1.8,1.1,5.6c2.3-3.1,3.1-6.3,4.3-7.9
		c2,12.2,2,30.3-4.9,40.5c-0.9-0.1-1.9-0.2-2.8-0.3c-2-2.9-1-6.6-1.4-9.8c-0.8-0.2-1.6-0.4-2.4-0.6c-1.1,3.4-1.6,7-3.4,10
		c-1.9,3.1-3.3,6.9-7.4,8.2c-5.6-3.8-4.2-5.6-4.5-8.7c-2.7-20.8,0.2-41.1,5.2-61.3c0.5-2-0.8-6.6,0.7-7.3
		c13.1-5.9,13.2-20,14.7-32.8C282.2,158.5,280.7,155,278.9,150.4z M271,247.7c3.5-15.7,6.7-26.5,9.8-40.3
		C264.6,219.8,260.5,234.1,271,247.7z"/>
	<path class="st2" d="M153.8,268.8c0.9-11.1,1.8-21.3,5.3-31.6c7.8-22.7,19-45.3,25.9-68.2c1-3.4,2.3-6.8,1.4-10.7
		c-10.8,8.6-6.6,24.1-14.4,32.9c-6.5-14,5.7-42.5,10.3-60.6c4.8,3.1,10.7,5.5,16.8,6.3c2.5,0.3,1.3,8.1,0.6,10.8
		c-2.4,9.7-5.2,19.4-9,28.7c-10.5,25.3-21.3,50.4-26.2,77.6c-1,5.6-3.6,11-5.5,16.5C157.3,269.8,155.5,269.3,153.8,268.8z"/>
	<path class="st2" d="M268,128.7c11.7-19.8,20.2-12.2,25.1-5.5c3.5,4.8,7.1,11.1,8.5,16.7c11.1,44.8,6.5,91.3-11,134.1
		c-1.8,4.4-8,6-10.8,9.7c23.9-45.2,24.4-93.6,17.6-143.8c-0.2-1.2-0.9-2.3-1.3-3.4C291.1,121.5,281.7,122,268,128.7z"/>
	<path class="st2" d="M190.8,207.4c-3.3,18.4-9.7,39.6-14.3,57.3c-0.4,1.6-2.7,2.6-4.1,3.9c-0.8-2.3-4.3-4.2-3.8-6.1
		c3.9-14,8.3-28.8,12.6-42.7c1-3.3,2.4-9.2,3.6-12.4C186.1,207.8,189.6,207,190.8,207.4z"/>
	<path class="st2" d="M215,146.1c-1.8-14.8,0-30.4,8.1-42.2C229.5,111.5,225.9,136.6,215,146.1z"/>
	<path d="M125.4,154.7c4.6,6.6-1.7,34.6-8.8,42.2C119.7,182.1,122.4,169.1,125.4,154.7z"/>
	<path class="st1" d="M271.1,250.7c-10.5-13.6-6.5-30.9,9.8-43.3C277.7,221.2,274.6,235,271.1,250.7z"/>
</g>
</svg>
